<?xml version="1.0" encoding="UTF-8"?>
<svg width="182px" height="36px" viewBox="0 0 182 36" version="1.1" xmlns="http://www.w3.org/2000/svg" xmlns:xlink="http://www.w3.org/1999/xlink">
    <!-- Generator: Sketch 50 (54983) - http://www.bohemiancoding.com/sketch -->
    <title>logo</title>
    <desc>Created with Sketch.</desc>
    <defs></defs>
    <g id="Page-1" stroke="none" stroke-width="1" fill="none" fill-rule="evenodd">
        <g id="logo" fill-rule="nonzero">
            <polygon id="Shape" fill="#1D1D1B" points="2.18 21.84 4.27 21.84 3.39 26.05 7.6 26.05 8.5 21.84 10.59 21.84 8.41 32.25 6.32 32.25 7.32 27.68 3.11 27.68 2.11 32.25 0.02 32.25"></polygon>
            <path d="M12.7,28.99 C12.7,30.41 13.46,30.93 14.83,30.93 C15.6472634,30.9201439 16.4525816,30.7324639 17.19,30.38 L16.94,31.96 C16.1487317,32.2222778 15.3232906,32.3671512 14.49,32.39 C12.28,32.39 10.79,31.32 10.79,29.03 C10.7384077,26.5437847 12.6760819,24.4686554 15.16,24.35 C17.05,24.35 18.31,25.35 18.31,27.27 C18.3069163,27.8483959 18.2432353,28.4248767 18.12,28.99 L12.7,28.99 Z M16.36,27.62 C16.3746106,27.4469746 16.3746106,27.2730254 16.36,27.1 C16.4019095,26.751147 16.2820391,26.4022755 16.0345653,26.1528531 C15.7870916,25.9034308 15.4391709,25.7808278 15.09,25.82 C14.0273561,25.8224909 13.1183754,26.5841831 12.93,27.63 L16.32,27.63 L16.36,27.62 Z" id="Shape" fill="#1D1D1B"></path>
            <path d="M23.8,31.03 C23.2523158,31.8690346 22.321909,32.3792577 21.32,32.39 C20.7042025,32.4602063 20.0883657,32.2587095 19.6331654,31.8380813 C19.177965,31.4174531 18.9285521,30.8194154 18.95,30.2 C18.95,27.66 21.78,27.47 23.66,27.47 L24.36,27.47 C24.4105528,27.2538539 24.4307469,27.0317188 24.42,26.81 C24.42,26.03 23.58,25.81 22.88,25.81 C22.0059652,25.8211813 21.1452931,26.0261033 20.36,26.41 L20.64,24.81 C21.4775921,24.5096652 22.3601997,24.3541098 23.25,24.35 C24.79,24.35 26.25,24.92 26.25,26.72 C26.25,27.72 25.49,30.72 25.31,32.21 L23.62,32.21 L23.8,31.03 Z M21.8,30.93 C23.29,30.93 23.8,29.93 24.07,28.66 L23.37,28.66 C22.37,28.66 20.79,28.82 20.79,30.12 C20.811525,30.3711606 20.9373963,30.6017818 21.1369898,30.7557539 C21.3365833,30.9097261 21.5916019,30.9729342 21.84,30.93 L21.8,30.93 Z" id="Shape" fill="#1D1D1B"></path>
            <polygon id="Shape" fill="#1D1D1B" points="29.59 21.02 31.59 21.02 29.22 32.21 27.22 32.21"></polygon>
            <path d="M32.15,24.53 L33.6,24.53 L33.94,22.95 L36.09,22.25 L35.6,24.53 L37.39,24.53 L37.08,25.99 L35.29,25.99 L34.56,29.35 C34.5003085,29.5955363 34.4700954,29.8473122 34.47,30.1 C34.4579459,30.3041424 34.534499,30.5035694 34.6800554,30.6472105 C34.8256118,30.7908517 35.0260351,30.8647568 35.23,30.85 C35.5717617,30.8543155 35.9111943,30.7932177 36.23,30.67 L35.89,32.22 C35.5403105,32.3159047 35.1818212,32.3762113 34.82,32.4 C33.46,32.4 32.51,31.86 32.51,30.4 C32.5282441,29.7960387 32.6120696,29.1958486 32.76,28.61 L33.33,26.01 L31.88,26.01 L32.15,24.53 Z" id="Shape" fill="#1D1D1B"></path>
            <path d="M39.55,21.02 L41.55,21.02 L40.55,25.27 C41.1353506,24.6991191 41.9128177,24.3674474 42.73,24.34 C43.4026193,24.2833413 44.0665637,24.5224324 44.5486391,24.9949048 C45.0307146,25.4673772 45.283115,26.1263769 45.24,26.8 C45.215814,27.3639274 45.132014,27.9237116 44.99,28.47 L44.18,32.2 L42.18,32.2 L42.93,28.57 C43.0572484,28.0420896 43.1309544,27.5026959 43.15,26.96 C43.1718718,26.6664891 43.0633315,26.3782477 42.8532944,26.1720646 C42.6432574,25.9658814 42.3530556,25.862697 42.06,25.89 C40.67,25.89 40.17,27.19 39.91,28.34 L39.09,32.2 L37.09,32.2 L39.55,21.02 Z" id="Shape" fill="#1D1D1B"></path>
            <polygon id="Shape" fill="#1D1D1B" points="52.77 21.84 58.9 21.84 58.59 23.48 54.5 23.48 53.96 26.05 57.6 26.05 57.27 27.69 53.61 27.69 53 30.61 57.12 30.61 56.76 32.25 50.55 32.25"></polygon>
            <path d="M68.22,21.02 L66.15,30.51 C66.03,31.17 65.91,31.82 65.87,32.21 L64.01,32.21 L64.2,31.08 C63.6547353,31.930763 62.6997404,32.4291866 61.69,32.39 C59.87,32.39 59.05,30.87 59.05,29.2 C59.05,26.9 60.3,24.35 62.91,24.35 C63.8248918,24.3328736 64.6975771,24.7342353 65.28,25.44 L66.28,21.02 L68.28,21.02 L68.22,21.02 Z M61.1,29.02 C61.1,29.8 61.34,30.84 62.32,30.84 C63.78,30.84 64.65,29.14 64.65,27.72 C64.7151476,27.283546 64.5959779,26.8396482 64.321001,26.4945047 C64.046024,26.1493613 63.6399761,25.9340203 63.2,25.9 C61.78,25.9 61.11,27.84 61.11,29.02 L61.1,29.02 Z" id="Shape" fill="#1D1D1B"></path>
            <path d="M75.06,31.11 C74.97,31.57 74.9,31.98 74.87,32.21 L72.87,32.21 L73,31.46 C72.4151967,32.0317011 71.6373957,32.3635153 70.82,32.39 C70.1473807,32.4466587 69.4834363,32.2075676 69.0013609,31.7350952 C68.5192854,31.2626228 68.266885,30.6036231 68.31,29.93 C68.334186,29.3660726 68.417986,28.8062884 68.56,28.26 L69.37,24.53 L71.37,24.53 L70.62,28.16 C70.4926847,28.6878978 70.4189778,29.2272983 70.4,29.77 C70.3776904,30.065427 70.4875271,30.3555387 70.6998963,30.562116 C70.9122655,30.7686933 71.2053026,30.870468 71.5,30.84 C72.89,30.84 73.39,29.54 73.65,28.39 L74.47,24.53 L76.47,24.53 L75.06,31.11 Z" id="Shape" fill="#1D1D1B"></path>
            <path d="M83.29,26.29 C82.4342401,25.7278684 81.3282453,25.720315 80.4648873,26.2707056 C79.6015294,26.8210963 79.1415763,27.8269417 79.29,28.84 C79.29,29.84 79.62,30.84 80.99,30.84 C81.5550956,30.8290303 82.1111362,30.6959899 82.62,30.45 L82.4,32.03 C81.7962006,32.2960547 81.1391686,32.4192482 80.48,32.39 C79.5910072,32.4409771 78.7230201,32.1072109 78.0972138,31.4737495 C77.4714076,30.8402881 77.1482186,29.9683073 77.21,29.08 C77.1281574,27.8354651 77.5735377,26.6138953 78.4372001,25.7140885 C79.3008625,24.8142816 80.5031568,24.3192212 81.75,24.35 C82.4276091,24.3535019 83.1011849,24.4545383 83.75,24.65 L83.29,26.29 Z" id="Shape" fill="#1D1D1B"></path>
            <path d="M88.5,31.03 C87.9523158,31.8690346 87.021909,32.3792577 86.02,32.39 C85.4042025,32.4602063 84.7883657,32.2587095 84.3331654,31.8380813 C83.877965,31.4174531 83.6285521,30.8194154 83.65,30.2 C83.65,27.66 86.48,27.47 88.36,27.47 L89.06,27.47 C89.1105528,27.2538539 89.1307469,27.0317188 89.12,26.81 C89.12,26.03 88.28,25.81 87.58,25.81 C86.7059652,25.8211813 85.8452931,26.0261033 85.06,26.41 L85.34,24.81 C86.1775921,24.5096652 87.0601997,24.3541098 87.95,24.35 C89.49,24.35 90.95,24.92 90.95,26.72 C90.95,27.72 90.19,30.72 90.01,32.21 L88.32,32.21 L88.5,31.03 Z M86.5,30.93 C87.99,30.93 88.5,29.93 88.77,28.66 L88.07,28.66 C87.07,28.66 85.49,28.82 85.49,30.12 C85.5124512,30.3630756 85.6326786,30.5866045 85.8231126,30.7393288 C86.0135466,30.892053 86.2578496,30.9608703 86.5,30.93 Z" id="Shape" fill="#1D1D1B"></path>
            <path d="M92.66,24.53 L94.11,24.53 L94.45,22.95 L96.6,22.25 L96.11,24.53 L97.9,24.53 L97.59,25.99 L95.8,25.99 L95.07,29.35 C95.0104019,29.5955532 94.9801901,29.8473178 94.98,30.1 C94.9679459,30.3041424 95.044499,30.5035694 95.1900554,30.6472105 C95.3356118,30.7908517 95.5360351,30.8647568 95.74,30.85 C96.0817617,30.8543155 96.4211943,30.7932177 96.74,30.67 L96.4,32.22 C96.0503105,32.3159047 95.6918212,32.3762113 95.33,32.4 C93.97,32.4 93.02,31.86 93.02,30.4 C93.0382441,29.7960387 93.1220696,29.1958486 93.27,28.61 L93.84,26.01 L92.39,26.01 L92.66,24.53 Z" id="Shape" fill="#1D1D1B"></path>
            <path d="M99.31,24.53 L101.31,24.53 L99.67,32.21 L97.67,32.21 L99.31,24.53 Z M100.04,21.22 L102.04,21.22 L101.62,23.13 L99.62,23.13 L100.04,21.22 Z" id="Shape" fill="#1D1D1B"></path>
            <path d="M110.19,27.72 C110.255079,28.9615994 109.796591,30.1736035 108.926038,31.0612639 C108.055484,31.9489243 106.852631,32.4309076 105.61,32.39 C104.658352,32.470778 103.719746,32.1262567 103.046342,31.4489936 C102.372938,30.7717304 102.033785,29.8311706 102.12,28.88 C102.097998,27.667562 102.570634,26.4984337 103.429041,25.6419132 C104.287448,24.7853927 105.457613,24.3153301 106.67,24.34 C107.602408,24.2547369 108.525933,24.5782669 109.20129,25.226763 C109.876647,25.8752591 110.237372,26.7849011 110.19,27.72 Z M108.1,27.72 C108.1,26.72 107.76,25.88 106.58,25.88 C105,25.88 104.21,27.63 104.21,29.01 C104.124166,29.468678 104.252346,29.9414524 104.558111,30.2939586 C104.863877,30.6464649 105.313796,30.8401618 105.78,30.82 C107.32,30.84 108.1,29.05 108.1,27.74 L108.1,27.72 Z" id="Shape" fill="#1D1D1B"></path>
            <path d="M112.35,25.63 C112.44,25.17 112.51,24.77 112.54,24.53 L114.54,24.53 L114.41,25.28 C114.995351,24.7091191 115.772818,24.3774474 116.59,24.35 C117.262619,24.2933413 117.926564,24.5324324 118.408639,25.0049048 C118.890715,25.4773772 119.143115,26.1363769 119.1,26.81 C119.075814,27.3739274 118.992014,27.9337116 118.85,28.48 L118.04,32.21 L116.04,32.21 L116.79,28.58 C116.917248,28.0520896 116.990954,27.5126959 117.01,26.97 C117.031872,26.6764891 116.923331,26.3882477 116.713294,26.1820646 C116.503257,25.9758814 116.213056,25.872697 115.92,25.9 C114.53,25.9 114.03,27.2 113.77,28.35 L112.95,32.21 L110.95,32.21 L112.35,25.63 Z" id="Shape" fill="#1D1D1B"></path>
            <polygon id="Shape" fill="#1D1D1B" points="126.5 21.84 132.63 21.84 132.32 23.48 128.25 23.48 127.71 26.05 131.35 26.05 131.02 27.69 127.36 27.69 126.75 30.61 130.87 30.61 130.51 32.25 124.3 32.25"></polygon>
            <path d="M133.9,25.63 C133.99,25.17 134.06,24.77 134.09,24.53 L136.09,24.53 L135.96,25.28 C136.545351,24.7091191 137.322818,24.3774474 138.14,24.35 C138.812619,24.2933413 139.476564,24.5324324 139.958639,25.0049048 C140.440715,25.4773772 140.693115,26.1363769 140.65,26.81 C140.625814,27.3739274 140.542014,27.9337116 140.4,28.48 L139.59,32.21 L137.59,32.21 L138.34,28.58 C138.467248,28.0520896 138.540954,27.5126959 138.56,26.97 C138.581872,26.6764891 138.473331,26.3882477 138.263294,26.1820646 C138.053257,25.9758814 137.763056,25.872697 137.47,25.9 C136.08,25.9 135.58,27.2 135.32,28.35 L134.5,32.21 L132.5,32.21 L133.9,25.63 Z" id="Shape" fill="#1D1D1B"></path>
            <path d="M141.87,33.38 C142.627715,33.7418066 143.451027,33.9459334 144.29,33.98 C146.41,33.98 146.72,32.5 147.2,30.76 C146.677364,31.6875278 145.684229,32.2495344 144.62,32.22 C142.76,32.22 141.95,30.65 141.95,28.97 C141.95,26.67 143.35,24.36 145.84,24.36 C146.7971,24.340698 147.690751,24.837171 148.18,25.66 L148.4,24.54 L150.32,24.54 C150.26,24.75 150.17,25.12 150.07,25.61 L148.85,31.38 C148.36,33.89 147.27,35.53 144.46,35.53 C143.41362,35.5440157 142.373398,35.3678217 141.39,35.01 L141.87,33.38 Z M146.08,25.91 C144.63,25.91 144.01,27.81 144.01,28.91 C144.01,29.84 144.38,30.63 145.28,30.63 C146.88,30.63 147.53,28.94 147.53,27.48 C147.563471,27.0741823 147.425944,26.6728251 147.15062,26.3728169 C146.875296,26.0728086 146.487193,25.9014111 146.08,25.9 L146.08,25.91 Z" id="Shape" fill="#1D1D1B"></path>
            <polygon id="Shape" fill="#1D1D1B" points="153.09 21.02 155.09 21.02 152.72 32.21 150.72 32.21"></polygon>
            <path d="M159.74,31.03 C159.192316,31.8690346 158.261909,32.3792577 157.26,32.39 C156.644203,32.4602063 156.028366,32.2587095 155.573165,31.8380813 C155.117965,31.4174531 154.868552,30.8194154 154.89,30.2 C154.89,27.66 157.72,27.47 159.6,27.47 L160.3,27.47 C160.350553,27.2538539 160.370747,27.0317188 160.36,26.81 C160.36,26.03 159.52,25.81 158.82,25.81 C157.945965,25.8211813 157.085293,26.0261033 156.3,26.41 L156.58,24.81 C157.417592,24.5096652 158.3002,24.3541098 159.19,24.35 C160.73,24.35 162.19,24.92 162.19,26.72 C162.19,27.72 161.43,30.72 161.25,32.21 L159.5,32.21 L159.74,31.03 Z M157.74,30.93 C159.23,30.93 159.74,29.93 160.01,28.66 L159.31,28.66 C158.31,28.66 156.73,28.82 156.73,30.12 C156.751203,30.3732445 156.878483,30.6057216 157.080407,30.7600226 C157.282332,30.9143235 157.540079,30.9760649 157.79,30.93 L157.74,30.93 Z" id="Shape" fill="#1D1D1B"></path>
            <path d="M164.58,25.63 C164.67,25.17 164.74,24.77 164.77,24.53 L166.77,24.53 L166.64,25.28 C167.225351,24.7091191 168.002818,24.3774474 168.82,24.35 C169.492619,24.2933413 170.156564,24.5324324 170.638639,25.0049048 C171.120715,25.4773772 171.373115,26.1363769 171.33,26.81 C171.305814,27.3739274 171.222014,27.9337116 171.08,28.48 L170.27,32.21 L168.27,32.21 L169.02,28.58 C169.147248,28.0520896 169.220954,27.5126959 169.24,26.97 C169.261872,26.6764891 169.153331,26.3882477 168.943294,26.1820646 C168.733257,25.9758814 168.443056,25.872697 168.15,25.9 C166.76,25.9 166.26,27.2 166,28.35 L165.18,32.21 L163.18,32.21 L164.58,25.63 Z" id="Shape" fill="#1D1D1B"></path>
            <path d="M181.78,21.02 L179.71,30.51 C179.59,31.17 179.47,31.82 179.43,32.21 L177.57,32.21 L177.76,31.08 C177.214735,31.930763 176.25974,32.4291866 175.25,32.39 C173.43,32.39 172.61,30.87 172.61,29.2 C172.61,26.9 173.86,24.35 176.47,24.35 C177.384892,24.3328736 178.257577,24.7342353 178.84,25.44 L179.84,21.02 L181.84,21.02 L181.78,21.02 Z M174.66,29.02 C174.66,29.8 174.9,30.84 175.88,30.84 C177.34,30.84 178.21,29.14 178.21,27.72 C178.275148,27.283546 178.155978,26.8396482 177.881001,26.4945047 C177.606024,26.1493613 177.199976,25.9340203 176.76,25.9 C175.33,25.9 174.66,27.84 174.66,29.02 Z" id="Shape" fill="#1D1D1B"></path>
            <rect id="Rectangle-path" fill="#0072BA" x="136.96" y="0" width="43.75" height="17.71"></rect>
            <polygon id="Shape" fill="#FFFFFF" points="141.25 1.71 146.01 1.71 148.93 11.59 148.93 11.59 150.93 1.71 154.52 1.71 151.52 15.96 146.78 15.96 143.78 6.1 143.78 6.1 141.78 15.96 138.19 15.96"></polygon>
            <polygon id="Shape" fill="#FFFFFF" points="155.97 1.71 159.79 1.71 158.67 7.16 163.18 7.16 164.3 1.71 168.12 1.71 165.12 15.96 161.3 15.96 162.57 9.85 158.06 9.85 156.79 15.96 152.97 15.96"></polygon>
            <path d="M178.16,4.94 C177.175934,4.48873334 176.102347,4.26649409 175.02,4.29 C173.51,4.29 172.28,4.51 172.28,5.66 C172.28,7.66 177.81,6.93 177.81,11.26 C177.81,15.2 174.15,16.26 170.81,16.26 C169.312608,16.2209788 167.828114,15.97188 166.4,15.52 L167.3,12.62 C168.384958,13.1772927 169.59043,13.4589128 170.81,13.44 C171.99,13.44 173.81,13.22 173.81,11.75 C173.81,9.46 168.28,10.32 168.28,6.3 C168.28,2.62 171.51,1.52 174.63,1.52 C176.11359,1.44779037 177.597219,1.66167733 179,2.15 L178.16,4.94 Z" id="Shape" fill="#FFFFFF"></path>
        </g>
    </g>
</svg>